<svg xmlns="http://www.w3.org/2000/svg" version="1.1" xmlns:xlink="http://www.w3.org/1999/xlink" xmlns:svgjs="http://svgjs.dev/svgjs" viewBox="0 0 800 800" opacity="0.46"><defs><linearGradient x1="50%" y1="0%" x2="50%" y2="100%" id="gggyrate-grad"><stop stop-color="hsl(184, 74%, 44%)" stop-opacity="1" offset="0%"></stop><stop stop-color="hsl(332, 87%, 70%)" stop-opacity="1" offset="100%"></stop></linearGradient></defs><g stroke-width="1.5" stroke="url(#gggyrate-grad)" fill="none"><path d="M323.63584983839974 -701.3763927266876C370.88994818984315 -728.6536453626535 429.10992973984435 -728.6536453626535 476.364028091288 -701.368756317775L1315.6359132265593 -216.81570158374916C1362.8900115780034 -189.5384489477833 1392.0000023530038 -139.11524089759212 1392.0000023530038 -84.55309921674757V884.5530102513039C1392.0000023530038 939.1151519321488 1362.8900115780034 989.5383599823399 1315.6359132265593 1016.8232490272183L476.364028091288 1501.376303761244C429.10992973984435 1528.6535563972097 370.88994818984315 1528.6535563972097 323.63584983839974 1501.3686673523316L-515.636035296872 1016.8156126183055C-562.8901336483156 989.5383599823399 -592.0001244233162 939.1151519321488 -592.0001244233162 884.5530102513039V-84.55309921674757C-592.0001244233162 -139.11524089759212 -562.8901336483156 -189.5384489477833 -515.636035296872 -216.82333799266155L323.63584983839974 -701.3763927266876Z " transform="rotate(80, 400, 400)" opacity="0.05"></path><path d="M326.0222276236009 -666.9584209851371C371.7996354015618 -693.383259476229 428.2002425281257 -693.383259476229 473.9776503060866 -666.9510232140029L1287.022289030881 -197.54025144041543C1332.7996968088419 -171.11541294932363 1361.0000003721234 -122.26793015070086 1361.0000003721234 -69.41085539738276V869.4106881497923C1361.0000003721234 922.2677629031105 1332.7996968088419 971.1152457017329 1287.022289030881 997.547481963959L473.9776503060866 1466.9582537375463C428.2002425281257 1493.3830922286384 371.7996354015618 1493.3830922286384 326.0222276236009 1466.9508559664123L-487.02241110119337 997.5400841928251C-532.7998188791544 971.1152457017329 -561.0001224424361 922.2677629031105 -561.0001224424361 869.4106881497923V-69.41085539738276C-561.0001224424361 -122.26793015070086 -532.7998188791544 -171.11541294932363 -487.02241110119337 -197.54764921154947L326.0222276236009 -666.9584209851371Z " transform="rotate(77.5, 400, 400)" opacity="0.08"></path><path d="M328.408727479115 -632.540327173274C372.7094446835931 -658.112751519492 427.2906773867194 -658.112751519492 471.5913945911975 -632.5331680399183L1258.4087869055147 -178.2646792267692C1302.7095041099928 -152.69225488055122 1330.0001204615564 -105.42049733349711 1330.0001204615564 -54.268489507705226V854.268488118593C1330.0001204615564 905.420495944385 1302.7095041099928 952.6922534914393 1258.4087869055147 978.2718369710126L471.5913945911975 1432.5403257841617C427.2906773867194 1458.11275013038 372.7094446835931 1458.11275013038 328.408727479115 1432.5331666508064L-458.4086648352023 978.2646778376572C-502.7093820396806 952.6922534914393 -529.9999983912437 905.420495944385 -529.9999983912437 854.268488118593V-54.268489507705226C-529.9999983912437 -105.42049733349711 -502.7093820396806 -152.69225488055122 -458.4086648352023 -178.27183836012466L328.408727479115 -632.540327173274Z " transform="rotate(75, 400, 400)" opacity="0.11"></path><path d="M330.79510526431613 -598.1222943965672C373.61913189531197 -622.8423045979114 426.38099017500053 -622.8423045979114 469.20501680599637 -598.1153739009901L1229.7951627098362 -158.98916804827923C1272.6191893408318 -134.2691578469353 1299.000118480676 -88.5731255514495 1299.000118480676 -39.126184653184055V839.1262270522375C1299.000118480676 888.5731679505029 1272.6191893408318 934.2692002459887 1229.7951627098362 958.9961309429095L469.20501680599637 1398.1223367956204C426.38099017500053 1422.8423469969644 373.61913189531197 1422.8423469969644 330.79510526431613 1398.1154163000438L-429.7950406395237 958.9892104473327C-472.61906727051934 934.2692002459887 -498.9999964103637 888.5731679505029 -498.9999964103637 839.1262270522375V-39.126184653184055C-498.9999964103637 -88.5731255514495 -472.61906727051934 -134.2691578469353 -429.7950406395237 -158.9960885438561L330.79510526431613 -598.1222943965672Z " transform="rotate(72.5, 400, 400)" opacity="0.14"></path><path d="M333.1814220143615 -563.7043226550168C374.52875807187456 -587.5719187114869 425.47124192812544 -587.5719187114869 466.8185779856385 -563.6976407972181L1201.1814774790012 -139.7137179049456C1242.5288135365145 -115.84612184847538 1268.00005546464 -71.72581480455824 1268.00005546464 -23.983940833819247V823.9839049507257C1268.00005546464 871.725778921465 1242.5288135365145 915.8460859653821 1201.1814774790012 939.7203638796507L466.8185779856385 1363.7042867719229C425.47124192812544 1387.5718828283934 374.52875807187456 1387.5718828283934 333.1814220143615 1363.697604914125L-401.1814774790013 939.7136820218523C-442.5288135365144 915.8460859653821 -468.0000554646399 871.725778921465 -468.0000554646399 823.9839049507257V-23.983940833819247C-468.0000554646399 -71.72581480455824 -442.5288135365144 -115.84612184847538 -401.1814774790013 -139.72039976274402L333.1814220143615 -563.7043226550168Z " transform="rotate(70, 400, 400)" opacity="0.17"></path><path d="M335.56779979956264 -529.2862288431536C375.4384452835932 -552.3014107547499 424.5615547164068 -552.3014107547499 464.43220020043736 -529.2797856231336L1172.5678532833226 -120.43814569129938C1212.4384987673532 -97.4229637797032 1237.0000534837598 -54.87838198735449 1237.0000534837598 -8.841574944141826V808.8417049195266C1237.0000534837598 854.8785119627394 1212.4384987673532 897.4230937550881 1172.5678532833226 920.4447188867043L464.43220020043736 1329.2863588185382C424.5615547164068 1352.3015407301345 375.4384452835932 1352.3015407301345 335.56779979956264 1329.2799155985185L-372.5678532833227 920.4382756666841C-412.43849876735317 897.4230937550881 -437.0000534837599 854.8785119627394 -437.0000534837599 808.8417049195266V-8.841574944141826C-437.0000534837599 -54.87838198735449 -412.43849876735317 -97.4229637797032 -372.5678532833227 -120.44458891131922L335.56779979956264 -529.2862288431536Z " transform="rotate(67.5, 400, 400)" opacity="0.20"></path><path d="M337.9541775847641 -494.86825710160315C376.34813249531203 -517.0310248683254 423.65186750468797 -517.0310248683254 462.04582241523576 -494.86205251936155L1143.954229087644 -101.16269554796565C1182.348183998192 -78.9999277812434 1206.00005150288 -38.03107124046301 1206.00005150288 6.300668875223096V793.6993828180148C1206.00005150288 838.0311229337012 1182.348183998192 878.9999794744815 1143.954229087644 901.168951823445L462.04582241523576 1294.8683087948411C423.65186750468797 1317.0310765615632 376.34813249531203 1317.0310765615632 337.9541775847641 1294.8621042125997L-343.9542290876441 901.1627472412038C-382.3481839981919 878.9999794744815 -406.0000515028799 838.0311229337012 -406.0000515028799 793.6993828180148V6.300668875223096C-406.0000515028799 -38.03107124046301 -382.3481839981919 -78.9999277812434 -343.9542290876441 -101.16890013020702L337.9541775847641 -494.86825710160315Z " transform="rotate(65, 400, 400)" opacity="0.23"></path><path d="M340.3405553699655 -460.4502395836854C377.2578197070309 -481.7605932055337 422.7421802929691 -481.7605932055337 459.6594446300346 -460.4442736392224L1115.3406048919655 -81.88719962826474C1152.2578692290308 -60.57684600641642 1175.000049522 -21.183714717204566 1175.000049522 21.44295847095532V778.5571064928706C1175.000049522 821.1837796810305 1152.2578692290308 860.5769109702421 1115.3406048919655 881.8932305365536L459.6594446300346 1260.450304547511C422.7421802929691 1281.7606581693594 377.2578197070309 1281.7606581693594 340.3405553699655 1260.4443386030484L-315.3406048919654 881.8872645920908C-352.2578692290307 860.5769109702421 -375.0000495219999 821.1837796810305 -375.0000495219999 778.5571064928706V21.44295847095532C-375.0000495219999 -21.183714717204566 -352.2578692290307 -60.57684600641642 -315.3406048919654 -81.89316557272764L340.3405553699655 -460.4502395836854Z " transform="rotate(62.5, 400, 400)" opacity="0.26"></path><path d="M342.7269331551669 -426.03226784213484C378.1675069187495 -446.49020731910923 421.8324930812505 -446.49020731910923 457.273066844833 -426.02654053545035L1086.7269806962868 -62.61174948493101C1122.1675544598693 -42.15381000795662 1144.00004754112 -4.336403970313313 1144.00004754112 36.58520229032024V763.4147843913588C1144.00004754112 804.3363906519924 1122.1675544598693 842.1537966896358 1086.7269806962868 862.6174634732945L457.273066844833 1226.0322545238137C421.8324930812505 1246.490194000788 378.1675069187495 1246.490194000788 342.7269331551669 1226.0265272171293L-286.72698069628683 862.6117361666102C-322.16755445986945 842.1537966896358 -344.0000475411199 804.3363906519924 -344.0000475411199 763.4147843913588V36.58520229032024C-344.0000475411199 -4.336403970313313 -322.16755445986945 -42.15381000795662 -286.72698069628683 -62.61747679161533L342.7269331551669 -426.03226784213484Z " transform="rotate(60, 400, 400)" opacity="0.30"></path><path d="M345.1132804227901 -391.6142350654281C379.0771636128902 -411.21976039752855 420.92277535195353 -411.21976039752855 454.88665854205374 -391.60874639652206L1058.11332598303 -43.33623830644103C1092.07720917313 -23.730712974340577 1113.0000150426617 12.510967811734304 1113.0000150426617 51.72750714484141V748.2725233250035C1113.0000150426617 787.4890626581107 1092.07720917313 823.7307434441855 1058.11332598303 843.3417574451919L454.88665854205374 1191.6142655352726C420.92277535195353 1211.2197908673731 379.0771636128902 1211.2197908673731 345.1132804227901 1191.608776866367L-258.11338701818636 843.3362687762858C-292.0772702082864 823.7307434441855 -313.00007607781805 787.4890626581107 -313.00007607781805 748.2725233250035V51.72750714484141C-313.00007607781805 12.510967811734304 -292.0772702082864 -23.730712974340577 -258.11338701818636 -43.34172697534689L345.1132804227901 -391.6142350654281Z " transform="rotate(57.5, 400, 400)" opacity="0.33"></path><path d="M347.4996582079915 -357.1962022887213C379.98685082460895 -375.9493134759478 420.0130881402348 -375.9493134759478 452.50028075685225 -357.19095225759384L1029.4997017873513 -24.060727127951168C1061.9868944039688 -5.307615940724531 1082.0000130617818 29.35833959378192 1082.0000130617818 66.86981199936258V733.1302622586479C1082.0000130617818 770.6417346642288 1061.9868944039688 805.3076901987351 1029.4997017873513 824.0660514170888L452.50028075685225 1157.1962765467315C420.0130881402348 1175.9493877339582 379.98685082460895 1175.9493877339582 347.4996582079915 1157.1910265156043L-229.4997628225077 824.0608013859617C-261.98695543912515 805.3076901987351 -282.0000740969381 770.6417346642288 -282.0000740969381 733.1302622586479V66.86981199936258C-282.0000740969381 29.35833959378192 -261.98695543912515 -5.307615940724531 -229.4997628225077 -24.065977159078443L347.4996582079915 -357.1962022887213Z " transform="rotate(55, 400, 400)" opacity="0.36"></path><path d="M349.8860359931929 -322.7782305471707C380.8965380363277 -340.67892758952337 419.10340092851607 -340.67892758952337 450.1139029716509 -322.7732191538218L1000.8860775916728 -4.78527698461744C1031.8965796348077 13.115420057735264 1051.0000110809017 46.205650340673174 1051.0000110809017 82.0120558187275V717.9879401571363C1051.0000110809017 753.7943456351907 1031.8965796348077 786.8845759181283 1000.8860775916728 804.79028435383L450.1139029716509 1122.7782265230342C419.10340092851607 1140.6789235653869 380.8965380363277 1140.6789235653869 349.8860359931929 1122.7732151296857L-200.8861386268291 804.785272960481C-231.89664066996392 786.8845759181283 -251.00007211605805 753.7943456351907 -251.00007211605805 717.9879401571363V82.0120558187275C-251.00007211605805 46.205650340673174 -231.89664066996392 13.115420057735264 -200.8861386268291 -4.790288377966135L349.8860359931929 -322.7782305471707Z " transform="rotate(52.5, 400, 400)" opacity="0.39"></path><path d="M352.27241377839425 -288.36019777046397C381.80622524804653 -305.4084806679426 418.1937137167972 -305.4084806679426 447.7275251864495 -288.3554250148935L972.2724533959943 14.490234193872539C1001.8062648656464 31.538517091351196 1020.000009100022 63.05302212272068 1020.000009100022 97.15436067324868V702.8456790907808C1020.000009100022 736.9470176413088 1001.8062648656464 768.4615226726783 972.2724533959943 785.5145783257271L447.7275251864495 1088.360237534493C418.1937137167972 1105.408520431972 381.80622524804653 1105.408520431972 352.27241377839425 1088.3554647789229L-172.27251443115046 785.5098055701567C-201.80632590080268 768.4615226726783 -220.00007013517808 736.9470176413088 -220.00007013517808 702.8456790907808V97.15436067324868C-220.00007013517808 63.05302212272068 -201.80632590080268 31.538517091351196 -172.27251443115046 14.485461438302309L352.27241377839425 -288.36019777046397Z " transform="rotate(50, 400, 400)" opacity="0.42"></path><path d="M354.6587915635956 -253.94216499375716C382.71591245976526 -270.1380337463619 417.2840265050785 -270.1380337463619 445.3411474012481 -253.93763087596523L943.6588292003157 33.76574537236252C971.7159500964851 49.961614124967355 989.0000071191419 79.9003939047683 989.0000071191419 112.29666552776985V687.7034180244254C989.0000071191419 720.0996896474271 971.7159500964851 750.0384694272279 943.6588292003157 766.2388722976245L445.3411474012481 1053.9422485459522C417.2840265050785 1070.1381172985568 382.71591245976526 1070.1381172985568 354.6587915635956 1053.9377144281605L-143.65889023547186 766.2343381798328C-171.71601113164144 750.0384694272279 -189.00006815429805 720.0996896474271 -189.00006815429805 687.7034180244254V112.29666552776985C-189.00006815429805 79.9003939047683 -171.71601113164144 49.961614124967355 -143.65889023547186 33.76121125457075L354.6587915635956 -253.94216499375716Z " transform="rotate(47.5, 400, 400)" opacity="0.45"></path><path d="M357.045169348797 -219.5241932522066C383.625599671484 -234.86764785993742 416.37433929335975 -234.86764785993742 442.95476961604675 -219.51989777219325L915.045205004637 53.041195515696245C941.6256353273238 68.38465012342704 958.0000051382619 96.74770465165966 958.0000051382619 127.43890934713465V672.5610959229136C958.0000051382619 703.2523006183887 941.6256353273238 731.6153551466214 915.045205004637 746.9631052343652L442.95476961604675 1019.5241985222549C416.37433929335975 1034.8676531299857 383.625599671484 1034.8676531299857 357.045169348797 1019.5199030422416L-115.0452660397932 746.9588097543522C-141.6256963624802 731.6153551466214 -158.00006617341808 703.2523006183887 -158.00006617341808 672.5610959229136V127.43890934713465C-158.00006617341808 96.74770465165966 -141.6256963624802 68.38465012342704 -115.0452660397932 53.03690003568295L357.045169348797 -219.5241932522066Z " transform="rotate(45, 400, 400)" opacity="0.48"></path><path d="M359.4315471339985 -185.1061757342889C384.53528688320284 -199.59721619714574 415.4646520816409 -199.59721619714574 440.56839183084537 -185.10211889205402L886.4315808089582 72.31669143539716C911.5353205581628 86.80773189825413 927.0000031573818 113.5950611749181 927.0000031573818 142.58119894286688V657.418819597769C927.0000031573818 686.404957365718 911.5353205581628 713.192286642382 886.4315808089582 727.6873839474736L440.56839183084537 985.1061942749247C415.4646520816409 999.5972347377817 384.53528688320284 999.5972347377817 359.4315471339985 985.1021374326901L-86.43164184411461 727.6833271052387C-111.53538159331902 713.192286642382 -127.00006419253805 686.404957365718 -127.00006419253805 657.418819597769V142.58119894286688C-127.00006419253805 113.5950611749181 -111.53538159331902 86.80773189825413 -86.43164184411461 72.31263459316244L359.4315471339985 -185.1061757342889Z " transform="rotate(42.5, 400, 400)" opacity="0.51"></path><path d="M361.81792491919987 -150.6881429575821C385.4449740949216 -164.32676927556503 414.5549648699222 -164.32676927556503 438.182014045644 -150.68432475312574L857.8179566132796 91.59220261388714C881.4450057890017 105.23082893187006 896.0000011765019 130.4424329569656 896.0000011765019 157.72350379738793V642.2765585314137C896.0000011765019 669.5576293718361 881.4450057890017 694.7692333969317 857.8179566132796 708.411677919371L438.182014045644 950.6882052863837C414.5549648699222 964.3268316043666 385.4449740949216 964.3268316043666 361.81792491919987 950.6843870819275L-57.81801764843601 708.4078597149146C-81.44506682415778 694.7692333969317 -96.00006221165808 669.5576293718361 -96.00006221165808 642.2765585314137V157.72350379738793C-96.00006221165808 130.4424329569656 -81.44506682415778 105.23082893187006 -57.81801764843601 91.58838440943094L361.81792491919987 -150.6881429575821Z " transform="rotate(40, 400, 400)" opacity="0.54"></path><path d="M364.20430270440124 -116.27017121603154C386.3546613066403 -129.05638338914056 413.64527765820344 -129.05638338914056 435.7956362604425 -116.26659164935376L829.2043324176011 110.86765275722087C851.3546910198402 123.65386493032986 864.999999195622 147.28974370385686 864.999999195622 172.86574761675286V627.134236429902C864.999999195622 652.710240342798 851.3546910198402 676.3461191163251 829.2043324176011 689.1359108561119L435.7956362604425 916.2701552626863C413.64527765820344 929.0563674357954 386.3546613066403 929.0563674357954 364.20430270440124 916.2665756960087L-29.20439345275736 689.1323312894342C-51.35475205499654 676.3461191163251 -65.00006023077805 652.710240342798 -65.00006023077805 627.134236429902V172.86574761675286C-65.00006023077805 147.28974370385686 -51.35475205499654 123.65386493032986 -29.20439345275736 110.86407319054314L364.20430270440124 -116.27017121603154Z " transform="rotate(37.5, 400, 400)" opacity="0.57"></path><path d="M366.5906804896026 -81.85213843932479C387.26434851835916 -93.78593646755982 412.7355904464846 -93.78593646755982 433.40925847524113 -81.84879751042547L800.5907082219223 130.1431639357108C821.2643762506791 142.0769619639459 833.9999972147418 164.13711548590447 833.9999972147418 188.0080524712739V611.9919753635464C833.9999972147418 635.8629123489161 821.2643762506791 657.9230658708747 800.5907082219223 669.8602048280089L433.40925847524113 881.852166274145C412.7355904464846 893.7859643023803 387.26434851835916 893.7859643023803 366.5906804896026 881.848825345246L-0.5907692570787617 669.8568638991097C-21.2644372858353 657.9230658708747 -34.000058249898075 635.8629123489161 -34.000058249898075 611.9919753635464V188.0080524712739C-34.000058249898075 164.13711548590447 -21.2644372858353 142.0769619639459 -0.5907692570787617 130.13982300681158L366.5906804896026 -81.85213843932479Z " transform="rotate(35, 400, 400)" opacity="0.60"></path><path d="M368.977058274804 -47.43410566261798C388.1740357300779 -58.51548954597911 411.82590323476586 -58.51548954597911 431.02288069003976 -47.431003371497184L771.977084026244 149.41867511420077C791.174061481518 160.5000589975619 802.9999952338619 180.9844872679521 802.9999952338619 203.15035732579514V596.849714297191C802.9999952338619 619.0155843550342 791.174061481518 639.5000126254243 771.977084026244 650.5844987999061L431.02288069003976 847.4341772856042C411.82590323476586 858.5155611689652 388.1740357300779 858.5155611689652 368.977058274804 847.4310749944834L28.022854938599835 650.5813965087855C8.82587748332594 639.5000126254243 -3.0000562690181027 619.0155843550342 -3.0000562690181027 596.849714297191V203.15035732579514C-3.0000562690181027 180.9844872679521 8.82587748332594 160.5000589975619 28.022854938599835 149.41557282308008L368.977058274804 -47.43410566261798Z " transform="rotate(32.5, 400, 400)" opacity="0.63"></path><path d="M371.3634970951616 -13.016133921067421C389.0837839769529 -23.245103659554616 410.9162770582034 -23.245103659554616 428.63656393999463 -13.013270267725147L743.3635208657215 168.6941252575345C761.0838077475128 178.9230949960217 772.0000542881381 197.83179801484334 772.0000542881381 218.29260114516012V581.7073921956794C772.0000542881381 602.1681953259962 761.0838077475128 621.0768983448179 743.3635208657215 631.3087317366472L428.63656393999463 813.0161272619068C410.9162770582034 823.245097000394 389.0837839769529 823.245097000394 371.3634970951616 813.0132636085646L56.63654016943474 631.3058680833051C38.91625328764337 621.0768983448179 28.000006747018176 602.1681953259962 28.000006747018176 581.7073921956794V218.29260114516012C28.000006747018176 197.83179801484334 38.91625328764337 178.9230949960217 56.63654016943474 168.69126160419233L371.3634970951616 -13.016133921067421Z " transform="rotate(30, 400, 400)" opacity="0.66"></path><path d="M373.749874880363 21.401898855639388C389.9934711886717 12.025343262026098 410.00658984648453 12.025343262026098 426.25018615479325 21.404523871203082L714.7498966700429 187.96963643602442C730.9934929783516 197.34619202963773 741.0000523072581 214.67916979689096 741.0000523072581 233.4349059996813V566.565131129324C741.0000523072581 585.3208673321144 730.9934929783516 602.6538450993676 714.7498966700429 612.0330257085444L426.25018615479325 778.5981382733657C410.00658984648453 787.9746938669791 389.9934711886717 787.9746938669791 373.749874880363 778.5955132578022L85.25016436511333 612.0304006929808C69.00656805680461 602.6538450993676 59.00000872789815 585.3208673321144 59.00000872789815 566.565131129324V233.4349059996813C59.00000872789815 214.67916979689096 69.00656805680461 197.34619202963773 85.25016436511333 187.96701142046078L373.749874880363 21.401898855639388Z " transform="rotate(27.5, 400, 400)" opacity="0.69"></path><path d="M376.13625266556437 55.819901114768015C390.90315840039045 47.29575966602869 409.0969026347658 47.29575966602869 423.8638083695919 55.822287492553244L686.1362724743643 207.24511709693627C700.9031782091904 215.7692585456756 710.0000503263782 231.52651106136034 710.0000503263782 248.57718033662434V551.4228395453904C710.0000503263782 568.4735088206544 700.9031782091904 584.2307613363391 686.1362724743643 592.7572891628636L423.8638083695919 744.1801187672465C409.0969026347658 752.704260215986 390.90315840039045 752.704260215986 376.13625266556437 744.1777323894614L113.86378856079193 592.7549027850783C99.09688282596585 584.2307613363391 90.00001070877818 568.4735088206544 90.00001070877818 551.4228395453904V248.57718033662434C90.00001070877818 231.52651106136034 99.09688282596585 215.7692585456756 113.86378856079193 207.24273071915115L376.13625266556437 55.819901114768015Z " transform="rotate(25, 400, 400)" opacity="0.72"></path><path d="M378.52263045076575 90.2379033738967C391.8128456121092 82.5661760700313 408.18721542304706 82.5661760700313 421.4774305843905 90.2400511139034L657.5226482786857 226.52059775784812C670.8128634400291 234.19232506171352 679.0000483454982 248.37385232582983 679.0000483454982 263.7194546735673V536.2805479614568C679.0000483454982 551.6261503091944 670.8128634400291 565.8076775733107 657.5226482786857 573.4815526171826L421.4774305843905 709.7620992611274C408.18721542304706 717.4338265649928 391.8128456121092 717.4338265649928 378.52263045076575 709.7599515211208L142.47741275647059 573.4794048771761C129.1871975951271 565.8076775733107 121.00001268965815 551.6261503091944 121.00001268965815 536.2805479614568V263.7194546735673C121.00001268965815 248.37385232582983 129.1871975951271 234.19232506171352 142.47741275647059 226.51845001784147L378.52263045076575 90.2379033738967Z " transform="rotate(22.5, 400, 400)" opacity="0.75"></path><path d="M380.90899297717806 124.65590563302538C392.7225175650389 117.83659247403389 407.27751295253915 117.83659247403389 419.09103754040007 124.65781473525351L628.909008824218 245.79607841875998C640.722533412079 252.61539157775144 648.0000311058291 265.2211935902992 648.0000311058291 278.8617290105104V521.1382563775232C648.0000311058291 534.7787917977345 640.722533412079 547.3845938102822 628.909008824218 554.2058160715019L419.09103754040007 675.3440797550082C407.27751295253915 682.1633929139997 392.7225175650389 682.1633929139997 380.90899297717806 675.3421706527802L171.09102169336012 554.2039069692737C159.27749710549926 547.3845938102822 151.99999941174912 534.7787917977345 151.99999941174912 521.1382563775232V278.8617290105104C151.99999941174912 265.2211935902992 159.27749710549926 252.61539157775144 171.09102169336012 245.7941693165319L380.90899297717806 124.65590563302538Z " transform="rotate(20, 400, 400)" opacity="0.79"></path><path d="M383.2953555035904 159.07393840973214C393.63218951796864 153.1070393956146 406.36781048203136 153.1070393956146 416.7046444964096 159.0756088741818L600.2953693697502 265.07158959724995C610.6322033841286 271.0384886113675 617.00001386616 282.06856537234677 617.00001386616 294.0040338650315V505.9959953111677C617.00001386616 517.9314638038526 610.6322033841286 528.9615405648319 600.2953693697502 534.930110043399L416.7046444964096 640.926090766467C406.36781048203136 646.8929897805847 393.63218951796864 646.8929897805847 383.2953555035904 640.9244203020176L199.70463063024965 534.9284395789493C189.36779661587138 528.9615405648319 182.99998613384003 517.9314638038526 182.99998613384003 505.9959953111677V294.0040338650315C182.99998613384003 282.06856537234677 189.36779661587138 271.0384886113675 199.70463063024965 265.06991913280035L383.2953555035904 159.07393840973214Z " transform="rotate(17.5, 400, 400)" opacity="0.82"></path><path d="M385.68173328879175 193.49194066886082C394.5418767296874 188.37745579961722 405.4581232703126 188.37745579961722 414.31826671120825 193.49337249553196L571.6817451740717 284.3470702581618C580.5418886149673 289.4615551274054 586.00001188528 298.9159066368162 586.00001188528 309.1463082019746V490.85370372723423C586.00001188528 501.0841052923927 580.5418886149673 510.5384568018035 571.6817451740717 515.6543734977181L414.31826671120825 606.508071260348C405.4581232703126 611.6225561295915 394.5418767296874 611.6225561295915 385.68173328879175 606.5066394336768L228.3182548259283 515.6529416710471C219.45811138503262 510.5384568018035 213.99998811472 501.0841052923927 213.99998811472 490.85370372723423V309.1463082019746C213.99998811472 298.9159066368162 219.45811138503262 289.4615551274054 228.3182548259283 284.34563843149067L385.68173328879175 193.49194066886082Z " transform="rotate(15, 400, 400)" opacity="0.85"></path><path d="M388.0681110739931 227.9099429279895C395.45156394140616 223.6478722036198 404.54843605859384 223.6478722036198 411.9318889260069 227.91113611688206L543.0681209783932 303.6225509190736C550.4515738458061 307.88462164344327 555.0000099044 315.76324790128564 555.0000099044 324.28858253891764V475.71141214330066C555.0000099044 484.23674678093266 550.4515738458061 492.11537303877503 543.0681209783932 496.37863695203725L411.9318889260069 572.0900517542287C404.54843605859384 576.3521224785984 395.45156394140616 576.3521224785984 388.0681110739931 572.0888585653362L256.9318790216069 496.3774437631446C249.54842615419386 492.11537303877503 244.99999009560003 484.23674678093266 244.99999009560003 475.71141214330066V324.28858253891764C244.99999009560003 315.76324790128564 249.54842615419386 307.88462164344327 256.9318790216069 303.62135773018105L388.0681110739931 227.9099429279895Z " transform="rotate(12.5, 400, 400)" opacity="0.88"></path><path d="M390.4544888591945 262.32796044590725C396.36125115312495 258.9183038664115 403.63874884687505 258.9183038664115 409.5455111408055 262.3289149970213L514.4544967827144 322.8980468387745C520.361259076645 326.30770341827025 524.00000792352 332.61060442454414 524.00000792352 339.4308721346497V460.56913581815616C524.00000792352 467.38940352826177 520.361259076645 473.69230453453565 514.4544967827144 477.1029156651455L409.5455111408055 537.6720475068987C403.63874884687505 541.0817040863944 396.36125115312495 541.0817040863944 390.4544888591945 537.6710929557846L285.54550321728556 477.1019611140314C279.6387409233551 473.69230453453565 275.99999207648 467.38940352826177 275.99999207648 460.56913581815616V339.4308721346497C275.99999207648 332.61060442454414 279.6387409233551 326.30770341827025 285.54550321728556 322.8970922876605L390.4544888591945 262.32796044590725Z " transform="rotate(10, 400, 400)" opacity="0.91"></path><path d="M392.8408666443959 296.7459703344304C397.2709383648437 294.1887278998086 402.7290616351563 294.1887278998086 407.1591333556041 296.746686247766L485.84087258703585 342.1735351290809C490.27094430748366 344.7307775637027 493.00000594264 349.4579533184081 493.00000594264 354.57315410098727V445.4268518636171C493.00000594264 450.54205264619634 490.27094430748366 455.26922840090174 485.84087258703585 457.82718674885905L407.1591333556041 503.254035630174C402.7290616351563 505.8112780647958 397.2709383648437 505.8112780647958 392.8408666443959 503.2533197168384L314.15912741296415 457.82647083552354C309.72905569251634 455.26922840090174 306.99999405736 450.54205264619634 306.99999405736 445.4268518636171V354.57315410098727C306.99999405736 349.4579533184081 309.72905569251634 344.7307775637027 314.15912741296415 342.17281921574533L392.8408666443959 296.7459703344304Z " transform="rotate(7.5, 400, 400)" opacity="0.94"></path><path d="M395.22724442959725 331.16397259355904C398.1806255765625 329.4591443038112 401.8193744234375 329.4591443038112 404.77275557040275 331.1644498691161L457.2272483913572 361.4490157899927C460.1806295383225 363.15384407974057 462.00000396176 366.30529458287754 462.00000396176 369.7154284379303V430.28456027968355C462.00000396176 433.6946941347363 460.1806295383225 436.8461446378733 457.2272483913572 438.5514502031782L404.77275557040275 468.8360161240548C401.8193744234375 470.5408444138027 398.1806255765625 470.5408444138027 395.22724442959725 468.8355388484978L342.77275160864275 438.55097292762116C339.8193704616775 436.8461446378733 337.99999603824 433.6946941347363 337.99999603824 430.28456027968355V369.7154284379303C337.99999603824 366.30529458287754 339.8193704616775 363.15384407974057 342.77275160864275 361.4485385144357L395.22724442959725 331.16397259355904Z " transform="rotate(5, 400, 400)" opacity="0.97"></path><path d="M397.6136222147986 365.5819901114768C399.0903127882812 364.72957596660285 400.9096872117188 364.72957596660285 402.3863777852014 365.58222874925536L428.6136241956786 380.7245117096936C430.09031476916124 381.57692585456755 431.00000198088 383.15265110613603 431.00000198088 384.8577180336624V415.14228395453904C431.00000198088 416.8473508820654 430.09031476916124 418.4230761336339 428.6136241956786 419.27572891628637L402.3863777852014 434.4180118767247C400.9096872117188 435.2704260215986 399.0903127882812 435.2704260215986 397.6136222147986 434.41777323894615L371.3863758043214 419.27549027850785C369.90968523083876 418.4230761336339 368.99999801912 416.8473508820654 368.99999801912 415.14228395453904V384.8577180336624C368.99999801912 383.15265110613603 369.90968523083876 381.57692585456755 371.3863758043214 380.7242730719151L397.6136222147986 365.5819901114768Z " transform="rotate(2.5, 400, 400)" opacity="1.00"></path></g></svg>